<mxfile host="65bd71144e">
    <diagram id="Zc9ykDCaDpqadypkbZk2" name="Page-1">
        <mxGraphModel dx="2407" dy="1107" grid="1" gridSize="10" guides="1" tooltips="1" connect="1" arrows="1" fold="1" page="1" pageScale="1" pageWidth="850" pageHeight="1100" math="0" shadow="0">
            <root>
                <mxCell id="0"/>
                <mxCell id="1" parent="0"/>
                <mxCell id="2" value="&lt;div style=&quot;&quot;&gt;Tetris&lt;/div&gt;" style="rounded=0;whiteSpace=wrap;html=1;align=center;movable=1;resizable=1;rotatable=1;deletable=1;editable=1;connectable=1;verticalAlign=top;" parent="1" vertex="1">
                    <mxGeometry x="290" y="80" width="330" height="380" as="geometry"/>
                </mxCell>
                <mxCell id="3" value="Insert Piece" style="ellipse;whiteSpace=wrap;html=1;movable=1;resizable=1;rotatable=1;deletable=1;editable=1;connectable=1;" parent="1" vertex="1">
                    <mxGeometry x="340" y="130" width="80" height="50" as="geometry"/>
                </mxCell>
                <mxCell id="31" style="html=1;entryX=0;entryY=0.5;entryDx=0;entryDy=0;endArrow=none;endFill=0;movable=1;resizable=1;rotatable=1;deletable=1;editable=1;connectable=1;" parent="1" source="5" target="26" edge="1">
                    <mxGeometry relative="1" as="geometry">
                        <mxPoint x="260" y="270" as="sourcePoint"/>
                    </mxGeometry>
                </mxCell>
                <mxCell id="32" style="html=1;entryX=0;entryY=0.5;entryDx=0;entryDy=0;endArrow=none;endFill=0;movable=1;resizable=1;rotatable=1;deletable=1;editable=1;connectable=1;" parent="1" source="5" target="27" edge="1">
                    <mxGeometry relative="1" as="geometry">
                        <mxPoint x="270" y="320" as="sourcePoint"/>
                    </mxGeometry>
                </mxCell>
                <mxCell id="5" value="Player" style="shape=umlActor;verticalLabelPosition=bottom;verticalAlign=top;html=1;outlineConnect=0;movable=1;resizable=1;rotatable=1;deletable=1;editable=1;connectable=1;" parent="1" vertex="1">
                    <mxGeometry x="230" y="250" width="30" height="60" as="geometry"/>
                </mxCell>
                <mxCell id="6" value="Shift Pieces" style="ellipse;whiteSpace=wrap;html=1;movable=1;resizable=1;rotatable=1;deletable=1;editable=1;connectable=1;" parent="1" vertex="1">
                    <mxGeometry x="340" y="230" width="80" height="50" as="geometry"/>
                </mxCell>
                <mxCell id="7" value="Insert to the right" style="ellipse;whiteSpace=wrap;html=1;movable=1;resizable=1;rotatable=1;deletable=1;editable=1;connectable=1;" parent="1" vertex="1">
                    <mxGeometry x="503" y="90" width="105" height="50" as="geometry"/>
                </mxCell>
                <mxCell id="11" value="Insert to the left" style="ellipse;whiteSpace=wrap;html=1;movable=1;resizable=1;rotatable=1;deletable=1;editable=1;connectable=1;" parent="1" vertex="1">
                    <mxGeometry x="503" y="150" width="105" height="50" as="geometry"/>
                </mxCell>
                <mxCell id="12" value="Shift by color" style="ellipse;whiteSpace=wrap;html=1;movable=1;resizable=1;rotatable=1;deletable=1;editable=1;connectable=1;" parent="1" vertex="1">
                    <mxGeometry x="515.5" y="210" width="80" height="50" as="geometry"/>
                </mxCell>
                <mxCell id="13" value="Shift by form" style="ellipse;whiteSpace=wrap;html=1;movable=1;resizable=1;rotatable=1;deletable=1;editable=1;connectable=1;" parent="1" vertex="1">
                    <mxGeometry x="515.5" y="272.5" width="80" height="50" as="geometry"/>
                </mxCell>
                <mxCell id="17" style="edgeStyle=none;html=1;exitX=0;exitY=0.5;exitDx=0;exitDy=0;endArrow=block;endFill=0;entryX=1;entryY=0;entryDx=0;entryDy=0;movable=1;resizable=1;rotatable=1;deletable=1;editable=1;connectable=1;" parent="1" source="12" target="6" edge="1">
                    <mxGeometry relative="1" as="geometry">
                        <mxPoint x="502.5" y="322.31999999999994" as="sourcePoint"/>
                        <mxPoint x="422.5" y="360" as="targetPoint"/>
                    </mxGeometry>
                </mxCell>
                <mxCell id="18" style="edgeStyle=none;html=1;exitX=0;exitY=0.5;exitDx=0;exitDy=0;endArrow=block;endFill=0;entryX=1;entryY=1;entryDx=0;entryDy=0;movable=1;resizable=1;rotatable=1;deletable=1;editable=1;connectable=1;" parent="1" source="13" target="6" edge="1">
                    <mxGeometry relative="1" as="geometry">
                        <mxPoint x="502.5" y="390" as="sourcePoint"/>
                        <mxPoint x="422.5" y="380" as="targetPoint"/>
                    </mxGeometry>
                </mxCell>
                <mxCell id="20" style="edgeStyle=none;html=1;endArrow=block;endFill=0;entryX=1;entryY=0;entryDx=0;entryDy=0;exitX=0;exitY=0.5;exitDx=0;exitDy=0;movable=1;resizable=1;rotatable=1;deletable=1;editable=1;connectable=1;" parent="1" source="7" target="3" edge="1">
                    <mxGeometry relative="1" as="geometry">
                        <mxPoint x="472.5" y="160" as="sourcePoint"/>
                        <mxPoint x="403.7842712474618" y="160.0023304703364" as="targetPoint"/>
                    </mxGeometry>
                </mxCell>
                <mxCell id="21" style="edgeStyle=none;html=1;endArrow=block;endFill=0;entryX=1;entryY=1;entryDx=0;entryDy=0;exitX=0;exitY=0.5;exitDx=0;exitDy=0;movable=1;resizable=1;rotatable=1;deletable=1;editable=1;connectable=1;" parent="1" source="11" target="3" edge="1">
                    <mxGeometry relative="1" as="geometry">
                        <mxPoint x="482.5" y="223" as="sourcePoint"/>
                        <mxPoint x="415.74427124746177" y="240.00233047033635" as="targetPoint"/>
                    </mxGeometry>
                </mxCell>
                <mxCell id="23" value="" style="endArrow=none;html=1;entryX=-0.001;entryY=0.443;entryDx=0;entryDy=0;entryPerimeter=0;movable=1;resizable=1;rotatable=1;deletable=1;editable=1;connectable=1;" parent="1" source="5" target="3" edge="1">
                    <mxGeometry width="50" height="50" relative="1" as="geometry">
                        <mxPoint x="270" y="260" as="sourcePoint"/>
                        <mxPoint x="320" y="210" as="targetPoint"/>
                    </mxGeometry>
                </mxCell>
                <mxCell id="24" value="" style="endArrow=none;html=1;entryX=0;entryY=0.5;entryDx=0;entryDy=0;movable=1;resizable=1;rotatable=1;deletable=1;editable=1;connectable=1;" parent="1" source="5" target="6" edge="1">
                    <mxGeometry width="50" height="50" relative="1" as="geometry">
                        <mxPoint x="270" y="280" as="sourcePoint"/>
                        <mxPoint x="460" y="240" as="targetPoint"/>
                    </mxGeometry>
                </mxCell>
                <mxCell id="26" value="save game&amp;nbsp;" style="ellipse;whiteSpace=wrap;html=1;movable=1;resizable=1;rotatable=1;deletable=1;editable=1;connectable=1;" parent="1" vertex="1">
                    <mxGeometry x="327.5" y="310" width="105" height="50" as="geometry"/>
                </mxCell>
                <mxCell id="27" value="load game&amp;nbsp;" style="ellipse;whiteSpace=wrap;html=1;movable=1;resizable=1;rotatable=1;deletable=1;editable=1;connectable=1;" parent="1" vertex="1">
                    <mxGeometry x="327.5" y="380" width="105" height="50" as="geometry"/>
                </mxCell>
                <mxCell id="33" value="&lt;div style=&quot;&quot;&gt;Tetris&lt;/div&gt;" style="rounded=0;whiteSpace=wrap;html=1;align=center;movable=0;resizable=0;rotatable=0;deletable=0;editable=0;connectable=0;verticalAlign=top;" parent="1" vertex="1">
                    <mxGeometry x="125" y="590" width="660" height="380" as="geometry"/>
                </mxCell>
                <mxCell id="34" value="Insert Piece" style="ellipse;whiteSpace=wrap;html=1;movable=1;resizable=1;rotatable=1;deletable=1;editable=1;connectable=1;" parent="1" vertex="1">
                    <mxGeometry x="455.5" y="670" width="80" height="50" as="geometry"/>
                </mxCell>
                <mxCell id="35" style="html=1;entryX=0;entryY=0.5;entryDx=0;entryDy=0;endArrow=none;endFill=0;movable=1;resizable=1;rotatable=1;deletable=1;editable=1;connectable=1;exitX=1;exitY=1;exitDx=0;exitDy=0;dashed=1;startArrow=openThin;startFill=0;" parent="1" source="53" target="49" edge="1">
                    <mxGeometry relative="1" as="geometry">
                        <mxPoint x="373" y="820" as="sourcePoint"/>
                    </mxGeometry>
                </mxCell>
                <mxCell id="56" value="&amp;lt;&amp;lt;Extend&amp;gt;&amp;gt;" style="edgeLabel;html=1;align=center;verticalAlign=middle;resizable=0;points=[];" parent="35" vertex="1" connectable="0">
                    <mxGeometry x="-0.3698" relative="1" as="geometry">
                        <mxPoint x="18" y="8" as="offset"/>
                    </mxGeometry>
                </mxCell>
                <mxCell id="36" style="html=1;entryX=0;entryY=0.5;entryDx=0;entryDy=0;endArrow=none;endFill=0;movable=1;resizable=1;rotatable=1;deletable=1;editable=1;connectable=1;" parent="1" source="37" target="50" edge="1">
                    <mxGeometry relative="1" as="geometry">
                        <mxPoint x="103" y="830" as="sourcePoint"/>
                    </mxGeometry>
                </mxCell>
                <mxCell id="37" value="Player" style="shape=umlActor;verticalLabelPosition=bottom;verticalAlign=top;html=1;outlineConnect=0;movable=1;resizable=1;rotatable=1;deletable=1;editable=1;connectable=1;" parent="1" vertex="1">
                    <mxGeometry x="63" y="760" width="30" height="60" as="geometry"/>
                </mxCell>
                <mxCell id="38" value="Shift Pieces" style="ellipse;whiteSpace=wrap;html=1;movable=1;resizable=1;rotatable=1;deletable=1;editable=1;connectable=1;" parent="1" vertex="1">
                    <mxGeometry x="455.5" y="740" width="80" height="50" as="geometry"/>
                </mxCell>
                <mxCell id="39" value="Insert to the right" style="ellipse;whiteSpace=wrap;html=1;movable=1;resizable=1;rotatable=1;deletable=1;editable=1;connectable=1;" parent="1" vertex="1">
                    <mxGeometry x="620.5" y="620" width="105" height="50" as="geometry"/>
                </mxCell>
                <mxCell id="40" value="Insert to the left" style="ellipse;whiteSpace=wrap;html=1;movable=1;resizable=1;rotatable=1;deletable=1;editable=1;connectable=1;" parent="1" vertex="1">
                    <mxGeometry x="620.5" y="681" width="105" height="50" as="geometry"/>
                </mxCell>
                <mxCell id="41" value="Shift by color" style="ellipse;whiteSpace=wrap;html=1;movable=1;resizable=1;rotatable=1;deletable=1;editable=1;connectable=1;" parent="1" vertex="1">
                    <mxGeometry x="623" y="740" width="100" height="50" as="geometry"/>
                </mxCell>
                <mxCell id="42" value="Shift by form" style="ellipse;whiteSpace=wrap;html=1;movable=1;resizable=1;rotatable=1;deletable=1;editable=1;connectable=1;" parent="1" vertex="1">
                    <mxGeometry x="625.5" y="802.5" width="95" height="50" as="geometry"/>
                </mxCell>
                <mxCell id="43" style="html=1;exitX=0;exitY=0.5;exitDx=0;exitDy=0;endArrow=block;endFill=0;entryX=1;entryY=0;entryDx=0;entryDy=0;movable=1;resizable=1;rotatable=1;deletable=1;editable=1;connectable=1;" parent="1" source="41" target="38" edge="1">
                    <mxGeometry relative="1" as="geometry">
                        <mxPoint x="723" y="852.3199999999999" as="sourcePoint"/>
                        <mxPoint x="643" y="890" as="targetPoint"/>
                    </mxGeometry>
                </mxCell>
                <mxCell id="44" style="html=1;exitX=0;exitY=0.5;exitDx=0;exitDy=0;endArrow=block;endFill=0;entryX=1;entryY=1;entryDx=0;entryDy=0;movable=1;resizable=1;rotatable=1;deletable=1;editable=1;connectable=1;" parent="1" source="42" target="38" edge="1">
                    <mxGeometry relative="1" as="geometry">
                        <mxPoint x="723" y="920" as="sourcePoint"/>
                        <mxPoint x="643" y="910" as="targetPoint"/>
                    </mxGeometry>
                </mxCell>
                <mxCell id="45" style="html=1;endArrow=block;endFill=0;entryX=1;entryY=0;entryDx=0;entryDy=0;exitX=0;exitY=0.5;exitDx=0;exitDy=0;movable=1;resizable=1;rotatable=1;deletable=1;editable=1;connectable=1;" parent="1" source="39" target="34" edge="1">
                    <mxGeometry relative="1" as="geometry">
                        <mxPoint x="693" y="690" as="sourcePoint"/>
                        <mxPoint x="624.2842712474618" y="690.0023304703363" as="targetPoint"/>
                    </mxGeometry>
                </mxCell>
                <mxCell id="46" style="html=1;endArrow=block;endFill=0;entryX=1;entryY=0.5;entryDx=0;entryDy=0;exitX=0;exitY=0.5;exitDx=0;exitDy=0;movable=1;resizable=1;rotatable=1;deletable=1;editable=1;connectable=1;" parent="1" source="40" target="34" edge="1">
                    <mxGeometry relative="1" as="geometry">
                        <mxPoint x="703" y="753" as="sourcePoint"/>
                        <mxPoint x="636.2442712474617" y="770.0023304703363" as="targetPoint"/>
                    </mxGeometry>
                </mxCell>
                <mxCell id="47" value="" style="endArrow=none;html=1;entryX=-0.001;entryY=0.443;entryDx=0;entryDy=0;entryPerimeter=0;movable=1;resizable=1;rotatable=1;deletable=1;editable=1;connectable=1;exitX=1;exitY=0;exitDx=0;exitDy=0;startArrow=block;startFill=0;" parent="1" source="53" target="34" edge="1">
                    <mxGeometry width="50" height="50" relative="1" as="geometry">
                        <mxPoint x="103" y="770" as="sourcePoint"/>
                        <mxPoint x="153" y="720" as="targetPoint"/>
                    </mxGeometry>
                </mxCell>
                <mxCell id="48" value="" style="endArrow=none;html=1;entryX=0;entryY=0.5;entryDx=0;entryDy=0;movable=1;resizable=1;rotatable=1;deletable=1;editable=1;connectable=1;exitX=1;exitY=0.5;exitDx=0;exitDy=0;startArrow=block;startFill=0;" parent="1" source="53" target="38" edge="1">
                    <mxGeometry width="50" height="50" relative="1" as="geometry">
                        <mxPoint x="103" y="790" as="sourcePoint"/>
                        <mxPoint x="293" y="750" as="targetPoint"/>
                    </mxGeometry>
                </mxCell>
                <mxCell id="49" value="save game&amp;nbsp;" style="ellipse;whiteSpace=wrap;html=1;movable=1;resizable=1;rotatable=1;deletable=1;editable=1;connectable=1;" parent="1" vertex="1">
                    <mxGeometry x="455.5" y="810" width="80" height="50" as="geometry"/>
                </mxCell>
                <mxCell id="50" value="load game&amp;nbsp;" style="ellipse;whiteSpace=wrap;html=1;movable=1;resizable=1;rotatable=1;deletable=1;editable=1;connectable=1;" parent="1" vertex="1">
                    <mxGeometry x="153" y="790" width="105" height="50" as="geometry"/>
                </mxCell>
                <mxCell id="51" style="html=1;entryX=0;entryY=0.5;entryDx=0;entryDy=0;endArrow=none;endFill=0;movable=1;resizable=1;rotatable=1;deletable=1;editable=1;connectable=1;" parent="1" source="37" target="52" edge="1">
                    <mxGeometry relative="1" as="geometry">
                        <mxPoint x="103" y="790" as="sourcePoint"/>
                    </mxGeometry>
                </mxCell>
                <mxCell id="52" value="start new game&amp;nbsp;" style="ellipse;whiteSpace=wrap;html=1;movable=1;resizable=1;rotatable=1;deletable=1;editable=1;connectable=1;" parent="1" vertex="1">
                    <mxGeometry x="153" y="720" width="105" height="50" as="geometry"/>
                </mxCell>
                <mxCell id="54" style="html=1;entryX=1;entryY=0.5;entryDx=0;entryDy=0;endArrow=none;endFill=0;" parent="1" source="53" target="50" edge="1">
                    <mxGeometry relative="1" as="geometry"/>
                </mxCell>
                <mxCell id="55" style="html=1;endArrow=none;endFill=0;" parent="1" source="53" target="52" edge="1">
                    <mxGeometry relative="1" as="geometry"/>
                </mxCell>
                <mxCell id="53" value="play&amp;nbsp;game&amp;nbsp;" style="ellipse;whiteSpace=wrap;html=1;movable=1;resizable=1;rotatable=1;deletable=1;editable=1;connectable=1;" parent="1" vertex="1">
                    <mxGeometry x="303.5" y="752.5" width="105" height="50" as="geometry"/>
                </mxCell>
            </root>
        </mxGraphModel>
    </diagram>
</mxfile>